<?xml version="1.0" encoding="UTF-8"?>
<svg id="Capa_1" data-name="Capa 1" xmlns="http://www.w3.org/2000/svg" viewBox="0 0 16 12.2">
  <defs>
    <style>
      .cls-1 {
        fill: #fff;
        stroke-width: 0px;
      }
    </style>
  </defs>
  <path class="cls-1" d="m13.55,1.01C12.51.54,11.41.2,10.29,0c-.02,0-.04,0-.05.02-.14.25-.3.58-.41.83-1.21-.18-2.45-.18-3.66,0-.12-.29-.26-.56-.41-.83-.01-.02-.03-.03-.05-.02-1.12.19-2.22.53-3.26,1.01,0,0-.02,0-.02.02C.36,4.13-.21,7.15.07,10.14c0,.01,0,.03.02.04,1.21.89,2.56,1.58,3.99,2.02.02,0,.04,0,.06-.02.31-.42.58-.86.82-1.33.01-.02,0-.04-.01-.06h-.02c-.43-.18-.85-.38-1.25-.61-.02-.01-.03-.04-.02-.07l.02-.02c.08-.06.17-.13.25-.19.01-.01.03-.01.05,0,2.62,1.2,5.45,1.2,8.04,0,.02,0,.04,0,.05,0,.08.07.16.13.25.19.02.02.03.05.01.07,0,0-.01.01-.02.02-.4.23-.82.43-1.25.59-.01,0-.02.02-.03.03,0,.01,0,.03,0,.04.24.47.52.91.82,1.33.01.02.04.03.06.02,1.44-.44,2.79-1.12,4-2.02.01,0,.02-.02.02-.04.33-3.45-.56-6.45-2.37-9.11,0,0-.01-.02-.02-.02m-8.2,7.31c-.79,0-1.44-.72-1.44-1.61s.64-1.61,1.44-1.61,1.45.73,1.44,1.61c0,.89-.64,1.61-1.44,1.61m5.32,0c-.79,0-1.44-.72-1.44-1.61s.64-1.61,1.44-1.61,1.45.73,1.44,1.61c0,.89-.63,1.61-1.44,1.61"/>
</svg>